<svg width="2557" height="1077" viewBox="0 0 2557 1077" fill="none" xmlns="http://www.w3.org/2000/svg">
<path d="M2037.38 995.077C2136.65 1051.87 2432.77 995.525 2555 858.418C2450.49 886.44 2340.51 815.823 2179.19 696.913C2038.38 593.113 1892.87 287.08 1858.34 184C1843.32 461.216 1798.51 858.418 2037.38 995.077Z" fill="#CDA22C"/>
<path d="M2037.38 995.077C2136.65 1051.87 2432.77 995.525 2555 858.418C2450.49 886.44 2340.51 815.823 2179.19 696.913C2038.38 593.113 1892.87 287.08 1858.34 184C1843.32 461.216 1798.51 858.418 2037.38 995.077Z" fill="#CDA22C"/>
<path d="M2037.38 995.077C2136.65 1051.87 2432.77 995.525 2555 858.418C2450.49 886.44 2340.51 815.823 2179.19 696.913C2038.38 593.113 1892.87 287.08 1858.34 184C1843.32 461.216 1798.51 858.418 2037.38 995.077Z" stroke="black"/>
<path d="M1217.68 1070.76C756.546 1127.46 198.238 708.183 1 571.12C169.646 599.133 495.829 707.547 1086.43 571.12C1329.86 514.889 1544.8 217.048 1600.53 114C1624.76 391.128 1623.62 1020.85 1217.68 1070.76Z" fill="#CDA22C"/>
<path d="M1217.68 1070.76C756.546 1127.46 198.238 708.183 1 571.12C169.646 599.133 495.829 707.547 1086.43 571.12C1329.86 514.889 1544.8 217.048 1600.53 114C1624.76 391.128 1623.62 1020.85 1217.68 1070.76Z" fill="#CDA22C"/>
<path d="M1217.68 1070.76C756.546 1127.46 198.238 708.183 1 571.12C169.646 599.133 495.829 707.547 1086.43 571.12C1329.86 514.889 1544.8 217.048 1600.53 114C1624.76 391.128 1623.62 1020.85 1217.68 1070.76Z" stroke="black"/>
<ellipse cx="1026" cy="248.5" rx="248" ry="248.5" fill="#CDA22C"/>
<circle cx="2292.5" cy="482.5" r="159.5" fill="#CDA22C"/>
</svg>
